<?xml version="1.0" standalone="no"?>
<!DOCTYPE svg PUBLIC "-//W3C//DTD SVG 20010904//EN"
 "http://www.w3.org/TR/2001/REC-SVG-20010904/DTD/svg10.dtd">
<svg version="1.0"
  xmlns="http://www.w3.org/2000/svg" width="1024.000000pt" height="1024.000000pt" viewBox="0 0 1024.000000 1024.000000" preserveAspectRatio="xMidYMid meet">

  <g transform="translate(0.000000,1024.000000) scale(0.100000,-0.100000)" fill="#000000" stroke="none">
    <path d="M4920 9323 c-92 -7 -268 -43 -360 -74 -472 -155 -839 -500 -1024
-963 -60 -149 -115 -376 -132 -545 l-7 -71 -371 0 c-418 0 -459 -5 -585 -67
-56 -28 -97 -58 -156 -118 -121 -120 -162 -209 -189 -405 -19 -139 -191 -1681
-281 -2525 -86 -801 -132 -1223 -206 -1895 -74 -661 -78 -781 -35 -945 103
-390 414 -685 806 -762 65 -12 433 -14 2721 -14 2876 1 2707 -2 2875 55 261
88 483 283 607 531 76 153 116 349 102 510 -5 71 -70 636 -94 820 -9 68 -8 71
20 112 61 87 74 129 74 243 0 98 -2 110 -32 173 -132 279 -480 353 -696 148
l-53 -50 -41 42 c-22 23 -46 52 -52 64 -7 15 -11 127 -11 347 l0 326 29 0 c24
0 31 -5 36 -30 9 -42 74 -139 123 -182 135 -122 360 -144 518 -52 60 35 141
125 172 191 25 53 27 69 27 178 0 116 -1 123 -33 187 -37 76 -123 162 -197
198 -26 12 -48 28 -50 34 -3 6 -32 238 -65 516 -58 489 -90 743 -185 1505 -24
198 -50 378 -56 400 -45 157 -187 329 -329 399 -125 61 -168 66 -592 66 -208
0 -378 2 -378 4 0 38 -36 265 -55 341 -139 584 -523 1020 -1075 1219 -217 78
-498 111 -770 89z m435 -493 c306 -58 568 -218 751 -459 77 -102 174 -294 204
-405 22 -81 50 -232 50 -273 l0 -23 -1240 0 -1240 0 0 28 c0 50 29 206 55 297
35 123 120 292 199 397 181 237 453 395 768 443 106 16 356 13 453 -5z m2200
-1659 c70 -32 125 -99 139 -166 3 -16 26 -214 51 -440 67 -613 73 -652 102
-709 14 -27 53 -77 87 -110 l61 -61 18 -165 c20 -179 74 -640 82 -705 6 -39 5
-40 -37 -59 -55 -25 -148 -119 -176 -179 -19 -41 -26 -47 -52 -47 l-30 0 0
398 c0 309 -4 412 -15 466 -28 132 -123 253 -252 319 -30 16 -31 19 -22 49 15
52 11 148 -9 220 -35 125 -120 225 -240 281 -92 43 -218 50 -316 17 -128 -42
-237 -152 -283 -282 -26 -76 -23 -205 5 -279 46 -116 135 -206 250 -250 87
-33 226 -32 309 2 l62 26 38 -30 c66 -52 114 -101 131 -132 15 -27 17 -113 22
-915 l5 -885 23 -67 c43 -128 170 -256 271 -273 l39 -6 17 -74 c28 -127 116
-237 233 -293 31 -15 59 -28 60 -29 4 -2 32 -229 63 -513 34 -313 18 -442 -72
-582 -69 -108 -199 -203 -335 -245 -57 -17 -165 -18 -2664 -18 -2089 0 -2616
3 -2660 13 -90 21 -195 78 -264 143 -151 141 -204 301 -177 535 6 54 25 227
41 384 17 157 46 427 65 600 37 345 69 638 145 1360 28 261 82 761 120 1110
38 349 81 748 95 885 37 367 55 515 66 558 13 48 81 124 134 148 38 18 137 19
2435 19 2312 0 2396 -1 2435 -19z m-432 -1175 c103 -44 117 -180 24 -236 -44
-27 -105 -26 -148 3 -46 31 -61 62 -56 120 5 53 32 91 82 113 39 17 58 17 98
0z m1225 -1506 c100 -61 93 -194 -13 -241 -37 -16 -51 -18 -83 -10 -46 13 -79
43 -99 89 -47 114 89 227 195 162z m-3 -1182 c61 -67 51 -156 -24 -205 -88
-59 -201 7 -201 117 0 81 60 134 144 127 41 -4 55 -10 81 -39z"/>
    <path d="M5042 6890 c-107 -22 -213 -107 -260 -207 -24 -51 -27 -70 -27 -158
0 -93 2 -105 33 -167 20 -41 50 -82 78 -106 l44 -40 -2 -256 -3 -256 -340 -5
c-375 -4 -488 -15 -676 -64 -445 -115 -789 -432 -903 -831 -21 -74 -27 -85
-47 -88 -235 -26 -386 -149 -428 -350 -14 -69 -14 -485 0 -554 6 -29 23 -78
38 -108 29 -61 118 -158 171 -185 46 -24 126 -45 173 -45 28 0 37 -4 37 -17 0
-32 52 -186 91 -271 90 -196 258 -391 438 -511 285 -189 579 -272 1065 -302
283 -17 1228 -7 1411 16 404 48 690 152 953 347 l92 68 68 -61 c37 -34 78 -72
91 -84 l23 -23 -27 -68 c-25 -62 -27 -77 -23 -165 6 -122 39 -200 121 -281
110 -111 256 -150 416 -113 89 21 153 59 216 127 67 73 102 143 116 238 41
285 -204 525 -490 479 -36 -5 -68 -12 -72 -14 -6 -4 -83 61 -251 211 l-38 34
29 87 c61 181 114 511 132 808 16 288 -6 553 -67 785 -44 171 -161 373 -298
519 -161 169 -447 318 -721 375 -149 30 -382 44 -807 46 l-88 0 0 253 1 252
43 32 c169 124 182 400 27 552 -87 84 -224 125 -339 101z m-848 -2080 c199
-51 345 -187 412 -385 21 -65 27 -98 27 -175 0 -177 -49 -296 -173 -421 -120
-122 -253 -175 -430 -172 -180 3 -319 62 -435 185 -114 120 -161 253 -152 428
7 129 31 205 99 306 138 206 398 299 652 234z m2166 -10 c137 -46 265 -160
330 -296 89 -185 77 -418 -32 -586 -43 -68 -150 -163 -222 -198 -171 -83 -378
-82 -553 2 -86 41 -196 148 -241 235 -40 77 -72 198 -72 275 0 71 24 192 50
253 29 69 94 158 147 204 61 53 170 107 253 126 90 21 254 13 340 -15z m1267
-2260 c128 -77 49 -280 -99 -255 -119 20 -158 183 -60 250 46 31 113 34 159 5z"/>
  </g>
</svg>
